<mxfile host="app.diagrams.net" modified="2024-05-06T09:28:04.546Z" agent="Mozilla/5.0 (Windows NT 10.0; Win64; x64) AppleWebKit/537.36 (KHTML, like Gecko) Chrome/124.0.0.0 Safari/537.36" etag="dGh73xpX4l2vjUbnv61j" version="24.2.5" type="device">
  <diagram name="Trang-1" id="01240MLXDxr1h6GIOOS5">
    <mxGraphModel dx="1290" dy="522" grid="1" gridSize="10" guides="1" tooltips="1" connect="1" arrows="1" fold="1" page="1" pageScale="1" pageWidth="827" pageHeight="1169" math="0" shadow="0">
      <root>
        <mxCell id="0" />
        <mxCell id="1" parent="0" />
        <mxCell id="0GpyU1pk9-LM1CYomhNz-1" value="X=(9, 2.5, 8.5, 0, 8.5)&lt;div&gt;&lt;br&gt;&lt;/div&gt;&lt;div&gt;f=7625&lt;/div&gt;" style="rounded=0;whiteSpace=wrap;html=1;" vertex="1" parent="1">
          <mxGeometry x="370" y="50" width="166" height="80" as="geometry" />
        </mxCell>
        <mxCell id="0GpyU1pk9-LM1CYomhNz-4" value="X=(8.5, 2.5, 8, 0.5, 9)&lt;div&gt;&lt;br&gt;&lt;/div&gt;&lt;div&gt;f=7645&lt;/div&gt;" style="rounded=0;whiteSpace=wrap;html=1;" vertex="1" parent="1">
          <mxGeometry x="190" y="180" width="166" height="80" as="geometry" />
        </mxCell>
        <mxCell id="0GpyU1pk9-LM1CYomhNz-5" value="X=(10, 2, 9, 0, 8)&lt;div&gt;&lt;br&gt;&lt;/div&gt;&lt;div&gt;f=7720&lt;/div&gt;" style="rounded=0;whiteSpace=wrap;html=1;fillColor=#CCFFCC;" vertex="1" parent="1">
          <mxGeometry x="550" y="180" width="166" height="80" as="geometry" />
        </mxCell>
        <mxCell id="0GpyU1pk9-LM1CYomhNz-6" value="X=(9, 2, 8, 1, 9)&lt;div&gt;&lt;br&gt;&lt;/div&gt;&lt;div&gt;f=7760&lt;/div&gt;" style="rounded=0;whiteSpace=wrap;html=1;" vertex="1" parent="1">
          <mxGeometry x="50" y="320" width="166" height="80" as="geometry" />
        </mxCell>
        <mxCell id="0GpyU1pk9-LM1CYomhNz-7" value="X=(9, 3, 8, 0, 9)&lt;div&gt;&lt;br&gt;&lt;/div&gt;&lt;div&gt;f=7760&lt;/div&gt;" style="rounded=0;whiteSpace=wrap;html=1;" vertex="1" parent="1">
          <mxGeometry x="280" y="320" width="166" height="80" as="geometry" />
        </mxCell>
        <mxCell id="0GpyU1pk9-LM1CYomhNz-8" value="" style="endArrow=none;html=1;rounded=0;" edge="1" parent="1" source="0GpyU1pk9-LM1CYomhNz-4" target="0GpyU1pk9-LM1CYomhNz-1">
          <mxGeometry width="50" height="50" relative="1" as="geometry">
            <mxPoint x="210" y="140" as="sourcePoint" />
            <mxPoint x="260" y="90" as="targetPoint" />
          </mxGeometry>
        </mxCell>
        <mxCell id="0GpyU1pk9-LM1CYomhNz-9" value="x3&amp;lt;=8" style="edgeLabel;html=1;align=center;verticalAlign=middle;resizable=0;points=[];" vertex="1" connectable="0" parent="0GpyU1pk9-LM1CYomhNz-8">
          <mxGeometry x="0.1404" y="1" relative="1" as="geometry">
            <mxPoint x="-38" y="-3" as="offset" />
          </mxGeometry>
        </mxCell>
        <mxCell id="0GpyU1pk9-LM1CYomhNz-10" value="" style="endArrow=none;html=1;rounded=0;" edge="1" parent="1" source="0GpyU1pk9-LM1CYomhNz-5" target="0GpyU1pk9-LM1CYomhNz-1">
          <mxGeometry width="50" height="50" relative="1" as="geometry">
            <mxPoint x="580" y="190" as="sourcePoint" />
            <mxPoint x="630" y="140" as="targetPoint" />
          </mxGeometry>
        </mxCell>
        <mxCell id="0GpyU1pk9-LM1CYomhNz-12" value="x3&amp;gt;=9" style="edgeLabel;html=1;align=center;verticalAlign=middle;resizable=0;points=[];" vertex="1" connectable="0" parent="0GpyU1pk9-LM1CYomhNz-10">
          <mxGeometry x="0.1207" y="1" relative="1" as="geometry">
            <mxPoint x="36" y="-6" as="offset" />
          </mxGeometry>
        </mxCell>
        <mxCell id="0GpyU1pk9-LM1CYomhNz-13" value="" style="endArrow=none;html=1;rounded=0;" edge="1" parent="1" source="0GpyU1pk9-LM1CYomhNz-6" target="0GpyU1pk9-LM1CYomhNz-4">
          <mxGeometry width="50" height="50" relative="1" as="geometry">
            <mxPoint x="130" y="320" as="sourcePoint" />
            <mxPoint x="180" y="270" as="targetPoint" />
          </mxGeometry>
        </mxCell>
        <mxCell id="0GpyU1pk9-LM1CYomhNz-14" value="x2&amp;lt;=2" style="edgeLabel;html=1;align=center;verticalAlign=middle;resizable=0;points=[];" vertex="1" connectable="0" parent="0GpyU1pk9-LM1CYomhNz-13">
          <mxGeometry x="0.1614" y="1" relative="1" as="geometry">
            <mxPoint x="-28" as="offset" />
          </mxGeometry>
        </mxCell>
        <mxCell id="0GpyU1pk9-LM1CYomhNz-15" value="" style="endArrow=none;html=1;rounded=0;" edge="1" parent="1" source="0GpyU1pk9-LM1CYomhNz-7" target="0GpyU1pk9-LM1CYomhNz-4">
          <mxGeometry width="50" height="50" relative="1" as="geometry">
            <mxPoint x="360" y="350" as="sourcePoint" />
            <mxPoint x="410" y="300" as="targetPoint" />
          </mxGeometry>
        </mxCell>
        <mxCell id="0GpyU1pk9-LM1CYomhNz-16" value="x2&amp;gt;=3" style="edgeLabel;html=1;align=center;verticalAlign=middle;resizable=0;points=[];" vertex="1" connectable="0" parent="0GpyU1pk9-LM1CYomhNz-15">
          <mxGeometry x="0.0296" y="-3" relative="1" as="geometry">
            <mxPoint x="21" y="-1" as="offset" />
          </mxGeometry>
        </mxCell>
      </root>
    </mxGraphModel>
  </diagram>
</mxfile>
